<?xml version="1.0" encoding="utf-8"?>
<!-- Generator: Adobe Illustrator 17.0.0, SVG Export Plug-In . SVG Version: 6.00 Build 0)  -->
<!DOCTYPE svg PUBLIC "-//W3C//DTD SVG 1.1//EN" "http://www.w3.org/Graphics/SVG/1.1/DTD/svg11.dtd">
<svg version="1.1" id="Layer_1" xmlns="http://www.w3.org/2000/svg" xmlns:xlink="http://www.w3.org/1999/xlink" x="0px" y="0px"
	 width="24px" height="24px" viewBox="78 8 24 24" enable-background="new 78 8 24 24" xml:space="preserve">
<g>
	<path fill="#59FFE6" d="M101.548,19.433l-2.534-1.786c-0.459-0.324-1.094,0.006-1.094,0.567v1.093H85.754
		c-0.383,0-0.694,0.311-0.694,0.694s0.311,0.694,0.694,0.694H97.92v1.093c0,0.565,0.638,0.888,1.094,0.567l2.534-1.786
		C101.94,20.291,101.938,19.708,101.548,19.433z"/>
	<path fill="#59FFE6" d="M88.964,30.805c-5.972,0-10.805-4.833-10.805-10.805c0-5.972,4.833-10.805,10.805-10.805
		c3.986,0,7.486,2.164,9.359,5.402c0.192,0.332,0.078,0.756-0.253,0.948c-0.332,0.192-0.756,0.079-0.948-0.253
		c-1.63-2.818-4.676-4.709-8.158-4.709c-5.193,0-9.418,4.225-9.418,9.418s4.225,9.418,9.418,9.418c3.484,0,6.529-1.893,8.158-4.709
		c0.192-0.332,0.616-0.445,0.948-0.253c0.332,0.192,0.445,0.616,0.253,0.948C96.449,28.643,92.949,30.805,88.964,30.805z"/>
</g>
<g>
	<path fill="#19E9D7" d="M85.06,20c0,0.383,0.311,0.694,0.694,0.694h12.167v1.093c0,0.565,0.638,0.888,1.094,0.567l2.534-1.786
		c0.196-0.138,0.293-0.353,0.293-0.567H85.06z"/>
	<path fill="#19E9D7" d="M98.07,24.455c-0.332-0.192-0.756-0.079-0.948,0.253c-1.629,2.816-4.674,4.709-8.158,4.709
		c-5.193,0-9.418-4.225-9.418-9.418h-1.388c0,5.973,4.833,10.805,10.805,10.805c3.985,0,7.485-2.162,9.359-5.402
		C98.515,25.071,98.402,24.647,98.07,24.455z"/>
</g>
</svg>
